<svg xmlns="http://www.w3.org/2000/svg" viewBox="0 24.200000762939453 24.850000381469727 26" data-asc="0.992"
     width="32" height="32">
    <defs/>
    <g>
        <g fill="#FFB300">
            <g transform="translate(0, 0)">
                <path d="M12.70 50.20Q8.95 50.20 6.10 48.60Q3.25 47 1.63 44.08Q0 41.15 0 37.20Q0 33.40 1.55 30.48Q3.10 27.55 5.95 25.88Q8.80 24.20 12.70 24.20Q17.10 24.20 20.40 26.48Q23.70 28.75 24.85 33.70L16.60 33.70Q16.10 32.25 15.07 31.53Q14.05 30.80 12.55 30.80Q10.90 30.80 9.88 31.70Q8.85 32.60 8.38 34.05Q7.90 35.50 7.90 37.20Q7.90 38.85 8.38 40.33Q8.85 41.80 9.88 42.70Q10.90 43.60 12.55 43.60Q14.05 43.60 15.07 42.85Q16.10 42.10 16.60 40.70L24.85 40.70Q24.15 43.75 22.45 45.85Q20.75 47.95 18.27 49.08Q15.80 50.20 12.70 50.20Z"/>
            </g>
        </g>

    </g>
</svg>